<?xml version="1.0" encoding="UTF-8"?>
<!DOCTYPE svg PUBLIC "-//W3C//DTD SVG 1.1//EN" "http://www.w3.org/Graphics/SVG/1.1/DTD/svg11.dtd">
<svg xmlns="http://www.w3.org/2000/svg" version="1.1" width="1280px" height="420px" style="shape-rendering:geometricPrecision; text-rendering:geometricPrecision; image-rendering:optimizeQuality; fill-rule:evenodd; clip-rule:evenodd" xmlns:xlink="http://www.w3.org/1999/xlink">
<g><path style="opacity:0.974" fill="#14b8a5" d="M 261.5,45.5 C 281.833,45.5 302.167,45.5 322.5,45.5C 322.5,63.8333 322.5,82.1667 322.5,100.5C 341.5,100.5 360.5,100.5 379.5,100.5C 379.5,114.833 379.5,129.167 379.5,143.5C 360.5,143.5 341.5,143.5 322.5,143.5C 322.102,173.855 322.602,204.189 324,234.5C 324.683,242.721 328.849,248.221 336.5,251C 340.922,252.204 345.422,253.037 350,253.5C 359.934,251.722 369.768,249.722 379.5,247.5C 379.5,262.167 379.5,276.833 379.5,291.5C 356.704,296.55 333.704,297.716 310.5,295C 280.489,290.321 264.322,272.821 262,242.5C 261.5,209.502 261.333,176.502 261.5,143.5C 254.167,143.5 246.833,143.5 239.5,143.5C 239.5,129.167 239.5,114.833 239.5,100.5C 246.833,100.5 254.167,100.5 261.5,100.5C 261.5,82.1667 261.5,63.8333 261.5,45.5 Z"/></g>
<g><path style="opacity:0.98" fill="#14b8a5" d="M 1105.5,92.5 C 1147.64,90.1524 1180.14,106.486 1203,141.5C 1215.84,164.108 1219.17,188.108 1213,213.5C 1205.63,237.234 1195.3,259.567 1182,280.5C 1162.29,310.222 1140.29,338.222 1116,364.5C 1080.52,327.214 1051.18,285.548 1028,239.5C 1024.8,230.908 1021.8,222.242 1019,213.5C 1010.13,166.418 1025.96,130.251 1066.5,105C 1079.01,98.884 1092.01,94.7173 1105.5,92.5 Z M 1109.5,149.5 C 1137.58,149.418 1151.58,162.918 1151.5,190C 1145.59,211.811 1131.25,221.477 1108.5,219C 1088.62,212.787 1079.46,199.287 1081,178.5C 1084.67,162.994 1094.17,153.327 1109.5,149.5 Z"/></g>
<g><path style="opacity:0.969" fill="#14b8a5" d="M 142.5,93.5 C 169.976,91.5236 196.309,96.0236 221.5,107C 222.492,123.423 222.825,139.923 222.5,156.5C 219.813,156.664 217.146,156.497 214.5,156C 192.912,139.936 168.912,134.269 142.5,139C 135.161,140.637 130.494,144.97 128.5,152C 128.715,157.562 131.381,161.562 136.5,164C 151.184,168.937 166.184,172.604 181.5,175C 223.71,186.932 238.543,213.765 226,255.5C 217.993,271.173 205.826,282.34 189.5,289C 148.166,303.077 107.499,301.244 67.5,283.5C 66.5005,266.179 66.1672,248.846 66.5,231.5C 68.5273,231.338 70.5273,231.505 72.5,232C 95.6192,249.483 121.619,256.817 150.5,254C 156.749,253.033 162.249,250.533 167,246.5C 169.61,240.392 168.776,234.892 164.5,230C 147.231,223.932 129.564,219.266 111.5,216C 74.1201,202.739 60.2867,176.905 70,138.5C 80.7906,117.007 97.9573,103.507 121.5,98C 128.57,96.1547 135.57,94.6547 142.5,93.5 Z"/></g>
<g><path style="opacity:0.969" fill="#14b8a5" d="M 456.5,93.5 C 478.119,92.2621 499.452,94.0954 520.5,99C 549.761,106.591 565.594,125.424 568,155.5C 568.5,201.165 568.667,246.832 568.5,292.5C 548.167,292.5 527.833,292.5 507.5,292.5C 507.666,286.158 507.5,279.825 507,273.5C 484.414,296.385 457.581,303.885 426.5,296C 401.141,284.792 388.141,265.292 387.5,237.5C 388.091,207.079 402.757,186.912 431.5,177C 456.42,170.551 481.754,166.718 507.5,165.5C 508.066,153.462 502.733,145.296 491.5,141C 470.968,134.635 450.635,135.301 430.5,143C 422.037,146.41 413.37,148.91 404.5,150.5C 404.5,134.5 404.5,118.5 404.5,102.5C 421.871,98.9556 439.204,95.9556 456.5,93.5 Z M 506.5,202.5 C 507.66,215.66 507.827,228.994 507,242.5C 494.456,254.899 479.622,258.733 462.5,254C 453.11,250.234 448.777,243.234 449.5,233C 449.93,219.231 456.93,210.898 470.5,208C 482.594,205.829 494.594,203.995 506.5,202.5 Z"/></g>
<g><path style="opacity:0.974" fill="#14b8a5" d="M 869.5,93.5 C 889.495,91.7486 907.828,96.4153 924.5,107.5C 925.877,105.711 926.877,103.711 927.5,101.5C 947.155,100.5 966.822,100.167 986.5,100.5C 986.667,163.168 986.5,225.834 986,288.5C 979.836,333.695 954.003,358.862 908.5,364C 877.98,366.675 847.98,364.175 818.5,356.5C 817.501,340.18 817.167,323.847 817.5,307.5C 821.514,307.334 825.514,307.501 829.5,308C 853.719,319.096 878.719,321.43 904.5,315C 913.759,311.409 919.925,304.909 923,295.5C 924.824,287.581 925.49,279.581 925,271.5C 905.744,287.857 883.577,293.691 858.5,289C 829.578,282.08 811.078,264.247 803,235.5C 800.894,228.306 799.561,220.972 799,213.5C 798.333,199.833 798.333,186.167 799,172.5C 801.919,146.822 813.086,125.656 832.5,109C 843.734,101.045 856.068,95.8781 869.5,93.5 Z M 897.5,139.5 C 907.046,139.267 916.213,140.934 925,144.5C 925.667,173.833 925.667,203.167 925,232.5C 908.488,244.114 891.321,245.281 873.5,236C 868.59,231.013 865.09,225.18 863,218.5C 859.433,201.086 859.766,183.753 864,166.5C 869.72,150.603 880.886,141.603 897.5,139.5 Z"/></g>
<g><path style="opacity:0.973" fill="#14b8a5" d="M 587.5,100.5 C 609.075,100.173 630.575,100.506 652,101.5C 665.279,140.396 678.279,179.396 691,218.5C 703.274,179.179 715.441,139.845 727.5,100.5C 748.5,100.5 769.5,100.5 790.5,100.5C 758.799,187.577 726.799,274.577 694.5,361.5C 672.5,362.833 650.5,362.833 628.5,361.5C 638.709,337.077 648.375,312.41 657.5,287.5C 634.437,225.046 611.104,162.713 587.5,100.5 Z"/></g>
</svg>
